<?xml version="1.0" encoding="UTF-8"?>
<svg id="Layer_9" data-name="Layer 9" xmlns="http://www.w3.org/2000/svg" viewBox="0 0 302.04 88.78">
  <defs>
    <style>
      .cls-1 {
        fill: #c1e0e4;
      }

      .cls-2 {
        fill: #fff;
      }

      .cls-3 {
        fill: #00b4ae;
      }

      .cls-4 {
        fill: #c5cfd7;
      }

      .cls-5 {
        fill: #b88a72;
      }

      .cls-6 {
        fill: #fbc3b2;
      }

      .cls-7 {
        fill: #9dcbce;
      }

      .cls-8 {
        fill: #008c85;
      }

      .cls-9 {
        fill: #b0b9c6;
      }

      .cls-10 {
        fill: #062023;
      }

      .cls-11 {
        fill: #7599a4;
      }

      .cls-12 {
        fill: #d5a281;
      }

      .cls-13 {
        fill: #003b45;
      }

      .cls-14 {
        fill: #417481;
      }
    </style>
  </defs>
  <path class="cls-5" d="m121.64,56.04s-38.89,1.26-70.11,14.44l22.33-51.19s-1-6.42-7.78-2.2l-29.89,54.46s.56,7.76,6.33,10.21,80.89,1.37,80.89,1.37"/>
  <path class="cls-12" d="m113.64,84c-2.14.09-73.33,0-73.33,0,0,0-4.44-.5-6.78-3.17s-13.5-60.64-13.5-60.64c0,0,1.67-4.2,5.83-2.2s16.33,53.39,16.33,53.39c0,0,63.5-21.72,86.67-11.88,23.17,9.83-15.22,24.5-15.22,24.5Z"/>
  <path class="cls-3" d="m113.98,53.56c-.79.06-23.11-2.57-44.78,9.55,0,0,6.56.81,6.44,9.35,0,0-8.33,12.65,2.11,16.32l40.44-2"/>
  <path class="cls-8" d="m50.98,0s18.67.67,26.44,6.22l-3.56,13.06s-2.22-5.22-7.78-2.2c0,0-4-9.86-13.11-10.42,0,0-2.11-.44-2-6.67Z"/>
  <path class="cls-3" d="m0,12.43s16.12-6.97,25.11-5.12l2.62,13.22s-4.14-3.81-7.54,1.18c0,0-7.65-7.27-15.61-4.08,0,0-1.98.46-4.57-5.2Z"/>
  <path class="cls-1" d="m20.19,21.71l1.96,9.25s6.19-3.73,8.76-1.57l-3.18-8.86s-4.5-4.33-7.54,1.18Z"/>
  <path class="cls-7" d="m66.09,17.09s-3.55,6.48-3.52,6.41,6.65-1.45,7.83,3.72l3.46-7.93s-1.89-5.56-7.78-2.2Z"/>
  <path class="cls-13" d="m174.69,8.35c-.68-.41-3.24,9.58-7.63,11.6-1.84.84-4.83,1.62-8.02,2.72-7.08,2.46-15.09,6.58-13.36,16.81,0,0,2.61,9.6-4.44,13.91-.91.56-.48,1.85.61,1.83l26.21-.49c.17,0,.33-.04.48-.11l16.54-7.87c.36-.17.58-.51.59-.87l.43-30.09c0-.34-.18-.66-.49-.85l-10.91-6.6Z"/>
  <path class="cls-13" d="m171.94,9.99s-6.22,12-15.93,14.23l11.91,1.78,8.84-13.51-4.82-2.5Z"/>
  <path class="cls-10" d="m186.72,2.71s15.81,2.18,14.04,20.85c-1.78,18.67,1.56,22.67,1.56,22.67,0,0,2.89,6-3.22,12.11-6.11,6.11-15.38-4.22-15.47-4.56s-3.88-17.89-3.88-17.89l2.57-9.89,4.41-23.29Z"/>
  <path class="cls-9" d="m170.53,33s10.78-1.22,19.22,6.11l-2.44,2-13.61-4.78-3.17-3.33Z"/>
  <path class="cls-12" d="m179.53,29.67s3,6.67,7.33,7.67,13-14,10.33-23.67c-2.67-9.67-11.33-10.67-11.33-10.67,0,0-17.67,2.67-6.33,26.67Z"/>
  <ellipse class="cls-12" cx="175.74" cy="20.19" rx="4" ry="4.83"/>
  <polygon class="cls-12" points="178.2 26.61 178.2 41.67 183.62 44.33 180.91 26.61 178.2 26.61"/>
  <path class="cls-5" d="m178.2,26.61s3.63,6.87,3.79,7.07.69,4.51.69,4.51c0,0-2.93-.74-4.48-1.34v-10.24Z"/>
  <path class="cls-13" d="m190.91,4.94s-7.41,9-12.71,10.42c0,0,.07.09-3.8.28s-2.66-5.35-2.66-5.35c0,0,8.71-13.53,19.17-5.35Z"/>
  <path class="cls-5" d="m199.45,67.89s.72,4.86,6.19,7.7,31.61,3.5,31.61,3.5c0,0,4.94,2.5,3.53,3.92s-6.67,2.42-6.67,2.42c0,0-19.58-1.25-20.08-1.33s-11.92-1.92-11.92-1.92c0,0-11.33-.83-18.5-22.67"/>
  <path class="cls-7" d="m187.02,44.33s6.51,14.22,12.73,19.33,7.89,5.67,7.89,5.67c0,0-4.89,8.67-15.23,8.28,0,0-4.16-1.06-8.8-12.5s3.4-20.78,3.4-20.78Z"/>
  <path class="cls-1" d="m170.53,33s-.59,3,1.21,6.56c0,0-3.98,11-26.09,12.11s-30-1.78-30-1.78c0,0-15.89,20.33-2.78,36,0,0,1.89,2.11,4.44,2.89,0,0,28.67-.33,53.56-10s18.78-24.89,18.78-24.89l-2.93-10.67s3.26-2.22,3.04-4.11c0,0-9.56.22-19.22-6.11Z"/>
  <path class="cls-1" d="m177.92,45.03s3.42,18.12,8.94,25.61,7.22,8.56,7.22,8.56c0,0-7.71,8.79-19.02,5.73,0,0-4.32-2.28-6.41-16.7-2.09-14.43,9.27-23.2,9.27-23.2Z"/>
  <path class="cls-7" d="m171.2,78.66s-3.63-5.44-4.48-15.56c0,0,.18,13.79,1.81,16.55l2.67-1Z"/>
  <path class="cls-7" d="m186.02,69.28s-3.41-2.94-5.66-12.19c0,0,4,8.75,7.75,10.06s-2.09,2.13-2.09,2.13Z"/>
  <rect class="cls-11" x="213.54" y="83.85" width="41.76" height="3.23"/>
  <polygon class="cls-14" points="255.29 83.85 283.04 83.85 297.86 49.51 302.04 49.51 287.08 83.85 287.08 87.09 255.29 87.09 255.29 83.85"/>
  <polygon class="cls-11" points="240.34 83.85 255.52 49.51 298.33 49.51 283.7 83.85 240.34 83.85"/>
  <polygon class="cls-2" points="244.82 81.03 257.35 52.33 292.81 52.33 280.89 81.03 244.82 81.03"/>
  <polygon class="cls-6" points="257.72 62.95 257.92 64.35 259.65 64.58 257.84 65.67 257.47 67.2 256.16 66.48 254.2 67.2 255.2 65.67 254.36 64.58 256.28 64.35 257.72 62.95"/>
  <polygon class="cls-6" points="263.76 62.95 263.95 64.35 265.68 64.58 263.88 65.67 263.5 67.2 262.19 66.48 260.24 67.2 261.23 65.67 260.39 64.58 262.32 64.35 263.76 62.95"/>
  <polygon class="cls-6" points="269.8 62.95 269.99 64.35 271.72 64.58 269.91 65.67 269.54 67.2 268.23 66.48 266.27 67.2 267.27 65.67 266.43 64.58 268.36 64.35 269.8 62.95"/>
  <polygon class="cls-4" points="275.78 62.95 275.97 64.35 277.7 64.58 275.89 65.67 275.52 67.2 274.21 66.48 272.25 67.2 273.25 65.67 272.41 64.58 274.34 64.35 275.78 62.95"/>
  <polygon class="cls-4" points="281.81 62.95 282.01 64.35 283.74 64.58 281.93 65.67 281.56 67.2 280.25 66.48 278.29 67.2 279.29 65.67 278.45 64.58 280.37 64.35 281.81 62.95"/>
  <path class="cls-12" d="m189.87,77.61l3.44,1.78,40.17,1.64s4.72.66,4.06,3.36-3.12,2.67-3.12,2.67l-54.96.28s-4.47-2.28-5.25-6.31,15.67-3.42,15.67-3.42Z"/>
  <path class="cls-1" d="m177.92,45.03s3.42,18.12,8.94,25.61,7.22,8.56,7.22,8.56c0,0-7.71,8.79-19.02,5.73,0,0-4.32-2.28-6.41-16.7-2.09-14.43,9.27-23.2,9.27-23.2Z"/>
</svg>