<svg xmlns="http://www.w3.org/2000/svg" width="416.93" height="325.555" viewBox="0 0 416.93 325.555">
  <g id="graphics2" transform="translate(0 0)">
    <path id="Path_208" data-name="Path 208" d="M43.382,128.58s-9.8,16.538-25.114,10.592S11.735,118.6,11.735,118.6l27.64-6.38,3.981,16.36" transform="translate(349.962 174.184)" fill="#81bbbd"/>
    <path id="Path_209" data-name="Path 209" d="M159.261,40.6s-32.132,3.777-60.232,76.464c0,0-28.1,7.274-68.246,0,0,0-9.188,7.835-4.594,13.986s84.325,9.622,84.325,9.622,39.585-30.984,51.044-71.461-2.3-28.585-2.3-28.585Z" transform="translate(187.224 60.52)" fill="#b88a72"/>
    <path id="Path_210" data-name="Path 210" d="M296.962,100.61c-6.814.153-172.426,19.448-182.635,19.448S19.054,127.2,19.054,127.2s-14.19,12.148,0,18.682,170,1.761,170,1.761,107.907,19.014,154.969,1.684-47.062-48.67-47.062-48.67Z" transform="translate(27.167 156.163)" fill="#5f9499"/>
    <path id="Path_211" data-name="Path 211" d="M53.2,106.044l24.935.485L60.19,63.295,35.23,62.81Z" transform="translate(248.855 97.49)" fill="#7fcecb"/>
    <path id="Path_212" data-name="Path 212" d="M34.06,63h3.165l17.763,43.107L52,106.234Z" transform="translate(274.985 97.785)" fill="#12bbb6"/>
    <path id="Path_213" data-name="Path 213" d="M40.76,63.384l4.722-.944H68.553l1,3.088L65.72,63.869Z" transform="translate(243.325 96.916)" fill="#12bbb6"/>
    <path id="Path_214" data-name="Path 214" d="M12.33,134.95l109.413-21.03s-2.858,22.23-25.726,25.42" transform="translate(263.69 176.823)" fill="#5f9499"/>
    <path id="Path_215" data-name="Path 215" d="M267.065,155.842s-118.524-91.726-158.8-87.183S10.161,175.851,10.161,175.851,7.89,193.436,23.2,192.874l87.9-82s83.38,88.816,144.633,96.192c0,0,43.107-21.847,11.332-51.2Z" transform="translate(112.523 106.316)" fill="#6d9fa8"/>
    <path id="Path_216" data-name="Path 216" d="M63.634,40.038s10.77-5.666,24.4,10.209,1.71,121.331-8.5,129.294S1.845,139.522,1.845,139.522s-6.814-15.543,5.666-17.227c0,0,48.211,23.812,51.605,23.812S55.722,70.664,63.66,40.038Z" transform="translate(322.768 60.618)" fill="#d5a281"/>
    <path id="Path_217" data-name="Path 217" d="M54.27,65.37S27.855,42.528,34.644,22.11L21.883,50.184s2.552,9.647,0,13.118S11.8,65.37,11.8,65.37s-8.4,19.575,0,28.993,24.552,9.851,25.828,9.418S59.324,85.915,59.324,85.915L54.27,65.37Z" transform="translate(336.981 34.316)" fill="#d5a281"/>
    <path id="Path_218" data-name="Path 218" d="M62.892,70.177S55.236,87.2,44.185,89.752,11.006,54.022,17.821,29.342,46.711,2.11,46.711,2.11s45.1,6.814,16.155,68.067Z" transform="translate(302.122 3.272)" fill="#d5a281"/>
    <ellipse id="Ellipse_128" data-name="Ellipse 128" cx="12.276" cy="12.659" rx="12.276" ry="12.659" transform="translate(360.906 36.213)" fill="#d5a281"/>
    <path id="Path_219" data-name="Path 219" d="M60.619,77.041s-14.471-10.387-21.694-8.4S34.663,72.7,34.663,72.7s2.195,1.761-.613,7.3a21.39,21.39,0,0,0-1.94,11.485s-1.276,5.947,5.1,6.38,11.485-2.4,23.4-.128,0-20.7,0-20.7Z" transform="translate(269.354 106.153)" fill="#d5a281"/>
    <path id="Path_220" data-name="Path 220" d="M70.157,36.929s-6.457,1.914-7.58,7.886-2.629,4.466-2.629,4.466-1.633-.613-2.195-6.074S54.308,24.423,47.239,23.555,40.832,26.388,30.726,28.1s-5.87-5.947-10.694-2.833-5.538,11.689-5.538,11.689-.383,11.842.715,16.615S9.466,35.755,13.754,25.826,34.222-6.816,55.763,1.989s27.079,20.979,24.6,43.387c0,0-2.629-9.239-10.209-8.448Z" transform="translate(304.53 -0.001)" fill="#003b45"/>
    <path id="Path_221" data-name="Path 221" d="M28.312,22.81S17.159,31.385,17.8,33.887s-4.007-1.608-4.007-5.538,2.629-3.292,2.629-3.292S20.068,27.583,28.312,22.81Z" transform="translate(353.394 35.403)" fill="#003b45"/>
    <path id="Path_222" data-name="Path 222" d="M165.759,109.79l-27.206,2.093s-14.165,8.065-5.691,20.826h0s14.956,1.736,29.682,1.991C162.544,134.7,156.163,120.892,165.759,109.79Z" transform="translate(-81.052 170.413)" fill="#b88a72"/>
    <path id="Path_223" data-name="Path 223" d="M136.835,120.574s-10-.74-21.8-18.784L101.41,124.147s1.71,13.527,16.589,13.705h0l18.835-17.278Z" transform="translate(21.248 157.995)" fill="#d5a281"/>
    <path id="Path_224" data-name="Path 224" d="M181.063,124.265s-13.476.485-16.589-13.705c0,0-8.5,20.7-28.074,25.241s-21.847,2.271-21.847,2.271-6.814,4.543-7.376,10.209l-.562,5.666h77.816s4.135-15.875,1.021-19.856-5.947-4.339-4.39-9.826Z" transform="translate(-41.815 171.608)" fill="#003b45"/>
    <path id="Path_225" data-name="Path 225" d="M192.756,157.43s-4.977-12.838,7.35-20.52c0,0-22.408-1.378-33.281-18.759s-9.494-20.315-9.494-20.315-6.585-5.079-12.123-3.752l-5.538,1.327,26.16,75.034s16.385-1.225,19.09-5.538,2.118-7.172,7.81-7.478Z" transform="translate(-139.67 145.691)" fill="#062023"/>
    <path id="Path_226" data-name="Path 226" d="M130.113,120.176s-18.35-6.023-24.042-21.387l-1.557-2.118s-9.826,11.715-6.763,13.322c0,0,6.687,15.237,21.49,18.554,0,0,5.768.357,10.847-8.346Z" transform="translate(38.816 150.048)" fill="#598691"/>
    <path id="Path_227" data-name="Path 227" d="M138.233,137.359s-3.828-14.726,4.747-26.134l.842-2.067s-12.838-.332-12.633,2.425c0,0-8.039,11.97-3.828,23.072,0,0,2.323,3.854,10.872,2.68Z" transform="translate(-48.855 169.411)" fill="#47747c"/>
    <path id="Path_228" data-name="Path 228" d="M86.838,39.919S72.316,61,72.367,84.378s2.527,65.26-.561,61.84c0,0-1.608,2.374-54.8-24.118l-9.264-5.181S1.774,94.2,37.453,39.178c0,0,2.654-.128,6.636,0,0,0-9.009,22.689-3.548,27.079s17.2,1.863,41.014-27.079c0,0,3.343-.766,5.258.74Z" transform="translate(311.253 60.507)" fill="#c1e0e4"/>
    <path id="Path_229" data-name="Path 229" d="M97.237,117.552s4.032,47.624-5.1,59.747-4.9,6.585-4.9,6.585,7.452-34.148-31.851-61.2C16.078,95.6,6.3,89.351,6.3,89.351l6-9.239a39.362,39.362,0,0,1,13.756.077s.434-.281,1.889.587c11.536,7.121,64.188,39.84,69.292,36.777Z" transform="translate(302.691 123.5)" fill="#9dcbce"/>
    <rect id="Rectangle_458" data-name="Rectangle 458" width="126.768" height="87.719" rx="12" transform="translate(148.742 45.375)" fill="#c1e0e4"/>
    <path id="Path_230" data-name="Path 230" d="M89.052,42.94l8.5,34.455L53.73,49.754Z" transform="translate(182.22 66.648)" fill="#c1e0e4"/>
    <ellipse id="Ellipse_129" data-name="Ellipse 129" cx="27.206" cy="27.206" rx="27.206" ry="27.206" transform="translate(183.86 62.016)" fill="none" stroke="#076f7a" stroke-miterlimit="10" stroke-width="3"/>
    <path id="Path_231" data-name="Path 231" d="M73.37,34.96a18.58,18.58,0,0,0,37.16,0" transform="translate(119.116 54.262)" fill="none" stroke="#076f7a" stroke-linecap="round" stroke-miterlimit="10" stroke-width="3"/>
    <line id="Line_131" data-name="Line 131" x1="37.185" transform="translate(192.486 89.222)" fill="none" stroke="#076f7a" stroke-linecap="round" stroke-miterlimit="10" stroke-width="3"/>
    <path id="Path_232" data-name="Path 232" d="M84.87,33.239s-6.457-5.947-11.51-.281" transform="translate(144.802 47.356)" fill="none" stroke="#076f7a" stroke-linecap="round" stroke-miterlimit="10" stroke-width="3"/>
    <path id="Path_233" data-name="Path 233" d="M83.42,33.359s6.457-5.947,11.51-.281" transform="translate(109.066 47.543)" fill="none" stroke="#076f7a" stroke-linecap="round" stroke-miterlimit="10" stroke-width="3"/>
  </g>
</svg>
