<?xml version="1.0" encoding="UTF-8"?>
<svg id="Layer_13" data-name="Layer 13" xmlns="http://www.w3.org/2000/svg" viewBox="0 0 556.92 284.65">
  <defs>
    <style>
      .cls-1 {
        fill: #c1e0e4;
      }

      .cls-2 {
        fill: #199387;
      }

      .cls-3 {
        fill: #00b4ae;
      }

      .cls-4 {
        fill: #009b93;
      }

      .cls-5 {
        fill: #b3d5d9;
      }

      .cls-6 {
        fill: #dd998a;
      }

      .cls-7 {
        fill: #c8967a;
      }

      .cls-8 {
        fill: #fbc3b2;
      }

      .cls-9 {
        fill: none;
        stroke: #fff9f8;
        stroke-linecap: round;
        stroke-miterlimit: 10;
      }

      .cls-10 {
        fill: #eaf3f4;
      }

      .cls-11 {
        fill: #76b9ba;
      }

      .cls-12 {
        fill: #d5a281;
      }

      .cls-13 {
        fill: #003b45;
      }

      .cls-14 {
        fill: #05484f;
      }
    </style>
  </defs>
  <rect class="cls-10" x="9.71" width="277.17" height="207.56" rx="12" ry="12"/>
  <circle class="cls-13" cx="41.23" cy="44.23" r="19.56"/>
  <path class="cls-14" d="m53.22,58.25s-12.29,16.09-1.64,32.26c0,0-17.07-13.95-17.93-21.49s-6.18-12.4,5.41-22.41,24.72,6.65,24.72,6.65l-10.56,4.98Z"/>
  <g>
    <path class="cls-7" d="m146.66,227.52s3.55,1.52,13.24-2.03,13.65-2.67,13.65-2.67l10.41,11.67s5.01,3.89,3.55,5.67-2.09,2.67-3,1.11-11.83-12-11.59-10.89,9.57,8.35,9.35,10.67-2.78,2.31-2.78,2.31l-11-10.32,9.33,10.32s.64,7.42-4.9,1.33l-5.69-3.64s-5.46,6.84-20.43,3.64l-.12-17.16Z"/>
    <path class="cls-7" d="m173.55,222.78s11.63-1.22,14.94,3.14c3.31,4.36,2.15,5.05,2.15,5.05,0,0-2.34,1.92-3.74,0s-4.71-3.75-4.71-3.75h-6.73l-1.91-4.44Z"/>
  </g>
  <g id="Layer_12" data-name="Layer 12">
    <path class="cls-12" d="m154.95,231.02c.57.09,8.84,7.2,14.91,9.95,6.07,2.75,5.5,4.46,5.5,4.46,0,0-1.27,3.58-5.62,2.21-4.35-1.37-8.7-2.74-9.77-2.78s-10.13-2.31-10.13-2.31c0,0,1.89-9.72,2.22-9.95s2.89-1.57,2.89-1.57Z"/>
  </g>
  <path class="cls-2" d="m60.37,136.8s11.08-5.26,18.86,4.16,34.98,79.55,34.98,79.55c0,0,26.12,8.71,40.26,4.12,0,0,4.35,13.3,0,21.77s-47.88,4.24-47.88,4.24c0,0-24.26,11.46-46.23-113.84Z"/>
  <g id="Layer_5" data-name="Layer 5">
    <path class="cls-7" d="m59.7,106.63s-2.23,16.04,3.47,28.48,3.64,11.56,3.64,11.56c0,0-14.2,10.22-25.18-3.56,0,0,5.21-42.98,0-58.04s18.07,21.56,18.07,21.56Z"/>
  </g>
  <g id="Layer_15" data-name="Layer 15">
    <path class="cls-14" d="m32.09,56.07s-11.3,28.93,11.85,50.93v-6.17l-.96-41.78-10.89-2.99Z"/>
  </g>
  <path class="cls-12" d="m39.53,95.06s14.43,27.64,29.86,24.54,25.6-69.24,2.98-72.64c0,0-40.84-10.95-35.95,23.04s3.11,25.06,3.11,25.06Z"/>
  <ellipse class="cls-12" cx="36.9" cy="83.79" rx="7.97" ry="12.75"/>
  <path class="cls-3" d="m64.87,138.22s16.89,20.44,24.44,26.22,10.22,16.89,10.22,16.89c0,0,3.11,11.11-4,17.33s0,49.86,0,49.86c0,0-6.04,7.03-37.02,6.59s-39.42-6.58-39.42-6.58l23.79-118.33s12.07,14.84,21.98,8.02Z"/>
  <path class="cls-2" d="m106.61,222.42s6.84,1.33,7,7.67,2.58,15.56.42,18.2-13-4.11-13-4.11l2.58-16.42,3-5.33Z"/>
  <g id="Layer_8" data-name="Layer 8">
    <path class="cls-11" d="m280.26,227.79h-124.4c-2.1,0-3.39-1.72-2.88-3.81l21.61-87.96c.52-2.1,2.65-3.81,4.75-3.81h124.4c2.1,0,3.39,1.72,2.88,3.81l-21.61,87.96c-.52,2.1-2.65,3.81-4.75,3.81Z"/>
    <path class="cls-1" d="m109.26,247.33s4.67-15.67,19.83-15.17,20.08,6.03,19.21,15.03l-39.04.13Z"/>
    <path class="cls-1" d="m283.81,228.06h-124.4c-2.1,0-3.39-1.72-2.88-3.81l21.61-87.96c.52-2.1,2.65-3.81,4.75-3.81h124.4c2.1,0,3.39,1.72,2.88,3.81l-21.61,87.96c-.52,2.1-2.65,3.81-4.75,3.81Z"/>
    <polygon class="cls-5" points="244.05 246.21 212.05 246.21 225.35 195.72 257.35 195.72 244.05 246.21"/>
    <rect class="cls-11" x="176.82" y="242.53" width="95.22" height="4.67"/>
  </g>
  <g>
    <path class="cls-12" d="m100.28,222.97s3.55,1.52,13.24-2.03,13.65-2.67,13.65-2.67l10.41,11.67s5.01,3.89,3.55,5.67-2.09,2.67-3,1.11-11.83-12-11.59-10.89,9.57,8.35,9.35,10.67-2.78,2.31-2.78,2.31l-11-10.32,9.33,10.32s.64,7.42-4.9,1.33l-5.69-3.64s-5.46,6.84-20.43,3.64l-.12-17.16Z"/>
    <path class="cls-12" d="m127.17,218.23s11.63-1.22,14.94,3.14c3.31,4.36,2.15,5.05,2.15,5.05,0,0-2.34,1.92-3.74,0s-4.71-3.75-4.71-3.75h-6.73l-1.91-4.44Z"/>
  </g>
  <path class="cls-4" d="m42.05,155.11s1.04,27.11,14.37,35.11,46.63-18.67,43.54,0c0,0-.03,5.85-4.99,9.06,0,0-5.63,8.71.21,39.05l-39.42-7-40.22-34.61,26.52-41.61Z"/>
  <path class="cls-3" d="m42.88,130.21s-17.64-6.21-27.38-2.21-12.34,82.67,20.52,115.11c0,0,19.52,6.22,71.96,5.33,0,0-9.84-11.56-1.81-25.78,0,0-34.11,2.67-52.15-4,0,0-15.75-5.27-11.14-88.46Z"/>
  <rect class="cls-6" x="261.07" y="35.49" width="40.99" height="40.99" rx="12" ry="12"/>
  <rect class="cls-6" x="166.49" y="20.22" width="40.99" height="40.99" rx="12" ry="12"/>
  <path class="cls-6" d="m238.29,118.99h-16.99c-6.6,0-12-5.4-12-12v-16.99c0-6.6,5.4-12,12-12h16.99c6.6,0,12,5.4,12,12v16.99c0,6.6-5.4,12-12,12Z"/>
  <polygon class="cls-6" points="217.14 115.6 217.14 127.15 229.8 116.71 217.14 115.6"/>
  <polygon class="cls-6" points="284.71 72.23 284.71 83.79 297.37 73.34 284.71 72.23"/>
  <polygon class="cls-6" points="170.29 55.52 181.6 72.23 181.63 50.18 170.29 55.52"/>
  <circle class="cls-9" cx="281.57" cy="55.99" r="13.23"/>
  <path class="cls-9" d="m290.61,55.99c0,4.99-4.05,9.04-9.04,9.04s-9.04-4.05-9.04-9.04"/>
  <line class="cls-9" x1="272.53" y1="55.99" x2="290.61" y2="55.99"/>
  <path class="cls-9" d="m272.53,51.79s3.15-2.9,5.59-.14"/>
  <path class="cls-9" d="m290.61,51.94s-3.15-2.9-5.59-.14"/>
  <circle class="cls-9" cx="186.98" cy="39.66" r="13.23"/>
  <path class="cls-9" d="m179.59,46.17s8.17-9.17,15-4.5"/>
  <path class="cls-9" d="m180.59,33.33v3.83"/>
  <path class="cls-9" d="m193.31,33.33v3.83"/>
  <path class="cls-9" d="m229.83,111.81l-10.69-10.69c-8.09-8.09,2.6-18.78,10.69-10.69,8-8,18.69,2.69,10.69,10.69l-10.69,10.69Z"/>
  <path class="cls-14" d="m42.16,55.64s3.48,8.84,1.49,15.09h45.22s0-28.2-18.89-28.47c-18.89-.27-25.41-4.19-32.62,7.47l4.81,5.91Z"/>
  <path class="cls-14" d="m44.37,60.47s-5.3,14.23-.71,28.55c0,0-7.37-12.34-7.74-19.01s-2.67-10.97,2.33-19.82,10.67,5.88,10.67,5.88l-4.56,4.41Z"/>
  <rect class="cls-3" y="247.2" width="293.67" height="9"/>
  <rect class="cls-8" x="6.67" y="256.2" width="287" height="28.33"/>
  <rect class="cls-6" x="7" y="256.32" width="112.21" height="28.33"/>
  <rect class="cls-2" y="247.2" width="119.87" height="9"/>
</svg>