<?xml version="1.0" encoding="UTF-8"?>
<svg id="Layer_9" data-name="Layer 9" xmlns="http://www.w3.org/2000/svg" viewBox="0 0 163.34 127.56">
  <defs>
    <style>
      .cls-1 {
        fill: #c1e0e4;
      }

      .cls-2 {
        fill: #12bbb6;
      }

      .cls-3 {
        fill: #6d9fa8;
      }

      .cls-4 {
        fill: #47747c;
      }

      .cls-5 {
        fill: #7fcecb;
      }

      .cls-6 {
        fill: #598691;
      }

      .cls-7 {
        fill: #b88a72;
      }

      .cls-8, .cls-9 {
        fill: none;
        stroke: #076f7a;
        stroke-miterlimit: 10;
      }

      .cls-10 {
        fill: #81bbbd;
      }

      .cls-11 {
        fill: #9dcbce;
      }

      .cls-12 {
        fill: #062023;
      }

      .cls-13 {
        fill: #d5a281;
      }

      .cls-14 {
        fill: #003b45;
      }

      .cls-9 {
        stroke-linecap: round;
      }

      .cls-15 {
        fill: #5f9499;
      }
    </style>
  </defs>
  <path class="cls-10" d="m9.23,118.63s3.84,6.48,9.84,4.15c6-2.33,2.56-8.06,2.56-8.06l-10.83-2.5-1.56,6.41"/>
  <path class="cls-7" d="m27.59,39.62s12.59,1.48,23.6,29.96c0,0,11.01,2.85,26.74,0,0,0,3.6,3.07,1.8,5.48s-33.04,3.77-33.04,3.77c0,0-15.51-12.14-20-28s.9-11.2.9-11.2Z"/>
  <path class="cls-15" d="m36.35,100.61c2.67.06,67.56,7.62,71.56,7.62s37.33,2.8,37.33,2.8c0,0,5.56,4.76,0,7.32s-66.61.69-66.61.69c0,0-42.28,7.45-60.72.66s18.44-19.07,18.44-19.07Z"/>
  <polygon class="cls-5" points="45 79.75 35.23 79.94 42.26 63 52.04 62.81 45 79.75"/>
  <polygon class="cls-2" points="42.26 63 41.02 63 34.06 79.89 35.23 79.94 42.26 63"/>
  <polygon class="cls-2" points="52.04 62.81 50.19 62.44 41.15 62.44 40.76 63.65 42.26 63 52.04 62.81"/>
  <path class="cls-15" d="m55.2,122.16l-42.87-8.24s1.12,8.71,10.08,9.96"/>
  <path class="cls-3" d="m14.62,102.72s46.44-35.94,62.22-34.16c15.78,1.78,38.44,42,38.44,42,0,0,.89,6.89-5.11,6.67l-34.44-32.13s-32.67,34.8-56.67,37.69c0,0-16.89-8.56-4.44-20.06Z"/>
  <path class="cls-13" d="m11.95,39.44s-4.22-2.22-9.56,4-.67,47.54,3.33,50.66,30.44-15.68,30.44-15.68c0,0,2.67-6.09-2.22-6.75,0,0-18.89,9.33-20.22,9.33s1.33-29.56-1.78-41.56Z"/>
  <path class="cls-13" d="m10.05,39.06s10.35-8.95,7.69-16.95l5,11s-1,3.78,0,5.14,3.95.81,3.95.81c0,0,3.29,7.67,0,11.36s-9.62,3.86-10.12,3.69-8.5-7-8.5-7l1.98-8.05Z"/>
  <path class="cls-13" d="m20.33,28.78s3,6.67,7.33,7.67,13-14,10.33-23.67S26.67,2.11,26.67,2.11c0,0-17.67,2.67-6.33,26.67Z"/>
  <ellipse class="cls-13" cx="17.13" cy="19.15" rx="4.81" ry="4.96"/>
  <path class="cls-13" d="m34.06,71.78s5.67-4.07,8.5-3.29,1.67,1.59,1.67,1.59c0,0-.86.69.24,2.86s.76,4.5.76,4.5c0,0,.5,2.33-2,2.5s-4.5-.94-9.17-.05,0-8.11,0-8.11Z"/>
  <path class="cls-14" d="m16.54,14.47s2.53.75,2.97,3.09,1.03,1.75,1.03,1.75c0,0,.64-.24.86-2.38s1.35-7.36,4.12-7.7,2.51,1.11,6.47,1.78,2.3-2.33,4.19-1.11,2.17,4.58,2.17,4.58c0,0,.15,4.64-.28,6.51s2.25-6.98.57-10.87S30.62-2.67,22.18.78s-10.61,8.22-9.64,17c0,0,1.03-3.62,4-3.31Z"/>
  <path class="cls-14" d="m13.79,22.81s4.37,3.36,4.12,4.34,1.57-.63,1.57-2.17-1.03-1.29-1.03-1.29c0,0-1.43.99-4.66-.88Z"/>
  <path class="cls-7" d="m130.16,109.79l10.66.82s5.55,3.16,2.23,8.16,0,0,0,0c0,0-5.86.68-11.63.78,0,0,2.5-5.41-1.26-9.76Z"/>
  <path class="cls-13" d="m101.41,109.15s3.92-.29,8.54-7.36l5.34,8.76s-.67,5.3-6.5,5.37,0,0,0,0l-7.38-6.77Z"/>
  <path class="cls-14" d="m108.79,115.93s5.28.19,6.5-5.37c0,0,3.33,8.11,11,9.89s8.56.89,8.56.89c0,0,2.67,1.78,2.89,4l.22,2.22h-30.49s-1.62-6.22-.4-7.78,2.33-1.7,1.72-3.85Z"/>
  <path class="cls-12" d="m142.55,118.77s1.95-5.03-2.88-8.04c0,0,8.78-.54,13.04-7.35s3.72-7.96,3.72-7.96c0,0,2.58-1.99,4.75-1.47l2.17.52-10.25,29.4s-6.42-.48-7.48-2.17-.83-2.81-3.06-2.93Z"/>
  <path class="cls-6" d="m97.16,105.88s7.19-2.36,9.42-8.38l.61-.83s3.85,4.59,2.65,5.22c0,0-2.62,5.97-8.42,7.27,0,0-2.26.14-4.25-3.27Z"/>
  <path class="cls-4" d="m128.33,120.2s1.5-5.77-1.86-10.24l-.33-.81s5.03-.13,4.95.95c0,0,3.15,4.69,1.5,9.04,0,0-.91,1.51-4.26,1.05Z"/>
  <path class="cls-1" d="m7.37,39.35s5.69,8.26,5.67,17.42-.99,25.57.22,24.23c0,0,.63.93,21.47-9.45,0,0,3.63-2.03,3.63-2.03s2.34-8.9-11.64-30.46c0,0-1.04-.05-2.6,0,0,0,3.53,8.89,1.39,10.61s-6.74.73-16.07-10.61c0,0-1.31-.3-2.06.29Z"/>
  <path class="cls-11" d="m6.65,94.45s-1.58,18.66,2,23.41,1.92,2.58,1.92,2.58c0,0-2.92-13.38,12.48-23.98,15.4-10.61,19.23-13.06,19.23-13.06l-2.35-3.62s-2.25-.5-5.39.03c0,0-.17-.11-.74.23-4.52,2.79-25.15,15.61-27.15,14.41Z"/>
  <rect class="cls-1" x="55.4" y="17.78" width="49.67" height="34.37" rx="12" ry="12"/>
  <polygon class="cls-1" points="57.06 42.94 53.73 56.44 70.9 45.61 57.06 42.94"/>
  <circle class="cls-8" cx="80.65" cy="34.96" r="10.66"/>
  <path class="cls-9" d="m87.93,34.96c0,4.02-3.26,7.28-7.28,7.28s-7.28-3.26-7.28-7.28"/>
  <line class="cls-9" x1="73.36" y1="34.96" x2="87.93" y2="34.96"/>
  <path class="cls-9" d="m73.36,31.58s2.53-2.33,4.51-.11"/>
  <path class="cls-9" d="m87.93,31.7s-2.53-2.33-4.51-.11"/>
</svg>