<?xml version="1.0" encoding="UTF-8"?>
<svg xmlns="http://www.w3.org/2000/svg" viewBox="0 0 459.25 84.49">
  <defs>
    <style>
      .cls-1 {
        fill: #fff;
      }
    </style>
  </defs>
  <g id="Layer_1" data-name="Layer 1">
    <g>
      <path class="cls-1" d="m4.7,39.42c-1.4,0-2.53-.4-3.4-1.2-.87-.8-1.3-1.8-1.3-3,0-1.33.43-2.4,1.3-3.2.87-.8,2-1.2,3.4-1.2h24.7c1.4,0,2.53.4,3.4,1.2.87.8,1.3,1.87,1.3,3.2,0,1.2-.43,2.2-1.3,3-.87.8-2,1.2-3.4,1.2H4.7Zm9.2,44.1c-1.27,0-2.4-.47-3.4-1.4-1-.93-1.5-2.17-1.5-3.7V29.12c0-4.8.95-8.97,2.85-12.5,1.9-3.53,4.55-6.28,7.95-8.25,3.4-1.97,7.33-2.95,11.8-2.95,1.47,0,2.68.43,3.65,1.3.97.87,1.45,1.97,1.45,3.3s-.48,2.35-1.45,3.25c-.97.9-2.18,1.35-3.65,1.35-2.47,0-4.63.57-6.5,1.7-1.87,1.13-3.32,2.7-4.35,4.7-1.03,2-1.55,4.37-1.55,7.1v50.3c0,1.53-.47,2.77-1.4,3.7s-2.23,1.4-3.9,1.4Z"/>
      <path class="cls-1" d="m65.9,83.92c-5.53,0-10.45-1.18-14.75-3.55-4.3-2.37-7.67-5.63-10.1-9.8-2.43-4.17-3.65-8.95-3.65-14.35s1.15-10.28,3.45-14.45c2.3-4.17,5.48-7.43,9.55-9.8,4.07-2.37,8.73-3.55,14-3.55s9.67,1.15,13.4,3.45c3.73,2.3,6.58,5.47,8.55,9.5,1.97,4.03,2.95,8.68,2.95,13.95,0,1.27-.43,2.32-1.3,3.15-.87.83-1.97,1.25-3.3,1.25h-40.3v-8h40l-4.1,2.8c-.07-3.33-.73-6.32-2-8.95-1.27-2.63-3.07-4.72-5.4-6.25-2.33-1.53-5.17-2.3-8.5-2.3-3.8,0-7.05.83-9.75,2.5-2.7,1.67-4.75,3.95-6.15,6.85-1.4,2.9-2.1,6.18-2.1,9.85s.83,6.93,2.5,9.8c1.67,2.87,3.97,5.13,6.9,6.8,2.93,1.67,6.3,2.5,10.1,2.5,2.07,0,4.18-.38,6.35-1.15,2.17-.77,3.92-1.65,5.25-2.65,1-.73,2.08-1.12,3.25-1.15,1.17-.03,2.18.32,3.05,1.05,1.13,1,1.73,2.1,1.8,3.3.07,1.2-.47,2.23-1.6,3.1-2.27,1.8-5.08,3.27-8.45,4.4-3.37,1.13-6.58,1.7-9.65,1.7Z"/>
      <path class="cls-1" d="m123.5,83.92c-5.53,0-10.45-1.18-14.75-3.55-4.3-2.37-7.67-5.63-10.1-9.8-2.43-4.17-3.65-8.95-3.65-14.35s1.15-10.28,3.45-14.45c2.3-4.17,5.48-7.43,9.55-9.8,4.07-2.37,8.73-3.55,14-3.55s9.67,1.15,13.4,3.45c3.73,2.3,6.58,5.47,8.55,9.5,1.97,4.03,2.95,8.68,2.95,13.95,0,1.27-.43,2.32-1.3,3.15-.87.83-1.97,1.25-3.3,1.25h-40.3v-8h40l-4.1,2.8c-.07-3.33-.73-6.32-2-8.95-1.27-2.63-3.07-4.72-5.4-6.25-2.33-1.53-5.17-2.3-8.5-2.3-3.8,0-7.05.83-9.75,2.5-2.7,1.67-4.75,3.95-6.15,6.85-1.4,2.9-2.1,6.18-2.1,9.85s.83,6.93,2.5,9.8c1.67,2.87,3.97,5.13,6.9,6.8,2.93,1.67,6.3,2.5,10.1,2.5,2.07,0,4.18-.38,6.35-1.15,2.17-.77,3.92-1.65,5.25-2.65,1-.73,2.08-1.12,3.25-1.15,1.17-.03,2.18.32,3.05,1.05,1.13,1,1.73,2.1,1.8,3.3.07,1.2-.47,2.23-1.6,3.1-2.27,1.8-5.08,3.27-8.45,4.4-3.37,1.13-6.58,1.7-9.65,1.7Z"/>
      <path class="cls-1" d="m180.2,83.92c-5.2,0-9.88-1.22-14.05-3.65-4.17-2.43-7.47-5.75-9.9-9.95-2.43-4.2-3.65-8.93-3.65-14.2s1.12-9.98,3.35-14.15c2.23-4.17,5.28-7.47,9.15-9.9,3.87-2.43,8.23-3.65,13.1-3.65,3.93,0,7.57.82,10.9,2.45,3.33,1.63,6.13,3.85,8.4,6.65V10.52c0-1.53.48-2.77,1.45-3.7.97-.93,2.18-1.4,3.65-1.4s2.77.47,3.7,1.4c.93.93,1.4,2.17,1.4,3.7v45.6c0,5.27-1.22,10-3.65,14.2-2.43,4.2-5.72,7.52-9.85,9.95-4.13,2.43-8.8,3.65-14,3.65Zm0-9c3.4,0,6.43-.82,9.1-2.45,2.67-1.63,4.77-3.88,6.3-6.75,1.53-2.87,2.3-6.07,2.3-9.6s-.77-6.8-2.3-9.6c-1.53-2.8-3.63-5.02-6.3-6.65-2.67-1.63-5.7-2.45-9.1-2.45s-6.35.82-9.05,2.45c-2.7,1.63-4.83,3.85-6.4,6.65-1.57,2.8-2.35,6-2.35,9.6s.78,6.73,2.35,9.6c1.57,2.87,3.7,5.12,6.4,6.75,2.7,1.63,5.72,2.45,9.05,2.45Z"/>
      <path class="cls-1" d="m219.9,39.42c-1.4,0-2.53-.4-3.4-1.2-.87-.8-1.3-1.8-1.3-3,0-1.33.43-2.4,1.3-3.2.87-.8,2-1.2,3.4-1.2h22.7c1.4,0,2.53.4,3.4,1.2.87.8,1.3,1.87,1.3,3.2,0,1.2-.43,2.2-1.3,3-.87.8-2,1.2-3.4,1.2h-22.7Zm9.4,44.1c-1.47,0-2.69-.5-3.65-1.5-.97-1-1.45-2.2-1.45-3.6V29.12c0-4.33.83-8.3,2.5-11.9,1.67-3.6,4.15-6.47,7.45-8.6,3.3-2.13,7.42-3.2,12.35-3.2,1.53,0,3.17.12,4.9.35,1.73.23,3.53.62,5.4,1.15,2.2.6,3.77,1.32,4.7,2.15.93.83,1.4,1.95,1.4,3.35,0,1.67-.48,2.78-1.45,3.35-.97.57-2.52.55-4.65-.05-1.87-.53-3.62-.85-5.25-.95-1.63-.1-3.15-.15-4.55-.15-3.73,0-6.77,1.2-9.1,3.6-2.33,2.4-3.5,5.7-3.5,9.9v50.3c0,1.4-.48,2.6-1.45,3.6-.97,1-2.18,1.5-3.65,1.5Zm41.6,0c-2.93,0-5.53-.8-7.8-2.4-2.27-1.6-4.03-3.78-5.3-6.55-1.27-2.77-1.9-5.95-1.9-9.55V10.42c0-1.47.47-2.67,1.4-3.6s2.13-1.4,3.6-1.4,2.67.47,3.6,1.4c.93.93,1.4,2.13,1.4,3.6v54.6c0,2.47.47,4.5,1.4,6.1.93,1.6,2.13,2.4,3.6,2.4h2.5c1.33,0,2.42.47,3.25,1.4.83.93,1.25,2.13,1.25,3.6s-.63,2.67-1.9,3.6c-1.27.93-2.9,1.4-4.9,1.4h-.2Z"/>
      <path class="cls-1" d="m307.2,83.92c-5.4,0-10.17-1.18-14.3-3.55-4.13-2.37-7.38-5.63-9.75-9.8-2.37-4.17-3.55-8.95-3.55-14.35s1.18-10.28,3.55-14.45c2.37-4.17,5.62-7.43,9.75-9.8,4.13-2.37,8.9-3.55,14.3-3.55s10.07,1.18,14.2,3.55c4.13,2.37,7.38,5.63,9.75,9.8,2.37,4.17,3.55,8.98,3.55,14.45s-1.17,10.18-3.5,14.35c-2.33,4.17-5.57,7.43-9.7,9.8-4.13,2.37-8.9,3.55-14.3,3.55Zm0-9c3.47,0,6.53-.8,9.2-2.4,2.67-1.6,4.75-3.8,6.25-6.6,1.5-2.8,2.25-6.03,2.25-9.7s-.75-6.92-2.25-9.75c-1.5-2.83-3.58-5.05-6.25-6.65-2.67-1.6-5.73-2.4-9.2-2.4s-6.53.8-9.2,2.4c-2.67,1.6-4.77,3.82-6.3,6.65-1.53,2.83-2.3,6.08-2.3,9.75s.77,6.9,2.3,9.7c1.53,2.8,3.63,5,6.3,6.6,2.67,1.6,5.73,2.4,9.2,2.4Z"/>
    </g>
  </g>
  <g id="Layer_6" data-name="Layer 6">
    <path class="cls-1" d="m279.08,22.55c18.39-19.83,49.2-15.85,64.12,4.53,9.41,13.29,14.06,29.47,17.25,45.25,0,0,1.31,7.56,1.31,7.56l-2.82-3.23c-1-.3-2.24-.19-3.07.48-.02.03-.04.05-.02.02.02-.03.04-.06.06-.09.03-.04.04-.03.08-.1,1.11-1.65,1.84-3.59,2.58-5.44,4.31-12.02,6.92-24.69,9.6-37.19.89-3.67,5.4-4.08,7.7-1.48,2.84,3.25,3.94,7.61,5.27,11.52,3.48,11.67,5.74,23.51,8.01,35.43,0,0-7.91.28-7.91.28.3-3.5.78-6.75,1.41-10.09,3.26-16.03,9.41-34.97,23.16-45.02,5.82-4.09,14.02-5.12,20.35-1.96-6.44.36-12.12,2.39-16.71,6.66-11.06,10.65-15.05,27.35-18.46,42-.66,3.17-1.32,6.43-1.84,9.52-.78,4.39-7.05,4.39-7.87.06-2.2-11.56-4.43-23.27-7.79-34.53-.93-2.85-1.77-5.8-3.32-8.26.37.35.99.61,1.53.67.91.14,1.87-.11,2.63-.63,0,0,1.67-2.5,1.67-2.5-.85,3.94-1.64,7.88-2.56,11.82-2.5,10.47-4.81,21.18-9.31,31.05-.83,1.54-1.74,3.28-3.14,4.41-1.14.99-2.81,1.5-4.31,1.05-1.54-.44-2.6-1.74-2.82-3.23l-1.26-7.27c-2.11-10.64-5.05-21.5-9.66-31.31-2.26-4.72-4.85-9.38-8.3-13.34-9.47-10.5-25.46-14.92-38.61-9.03-4.08,1.81-7.99,4.5-11.03,7.77-3.62,3.77-9.34-1.34-5.92-5.37h0Z"/>
  </g>
</svg>