<?xml version="1.0" encoding="UTF-8"?>
<svg xmlns="http://www.w3.org/2000/svg" viewBox="0 0 483.33 134.5">
  <defs>
    <style>
      .cls-1 {
        letter-spacing: -.04em;
      }

      .cls-2, .cls-3 {
        fill: #fff;
      }

      .cls-3 {
        font-family: Comfortaa-Bold, Comfortaa;
        font-size: 100px;
        font-variation-settings: 'wght' 700;
        font-weight: 700;
      }

      .cls-4 {
        letter-spacing: -.03em;
      }

      .cls-5 {
        letter-spacing: -.06em;
      }

      .cls-6 {
        letter-spacing: -.02em;
      }
    </style>
  </defs>
  <g id="Layer_1" data-name="Layer 1">
    <text class="cls-3" transform="translate(15.66 105.6)"><tspan class="cls-1" x="0" y="0">fee</tspan><tspan class="cls-4" x="147.4" y="0">d</tspan><tspan class="cls-5" x="215.2" y="0">fl</tspan><tspan class="cls-6" x="274.4" y="0">o</tspan></text>
  </g>
  <g id="Layer_6" data-name="Layer 6">
    <path class="cls-2" d="m295.74,44.63c18.93-20.4,50.88-15.56,65.28,6.19,9.98,15.15,14.49,33.44,17.4,51.15,0,0-2.82-3.23-2.82-3.23-.33-.1-.68-.16-1.03-.16-.7-.02-1.6.22-2.06.66.2-.26.36-.51.55-.8,3.05-5.81,4.69-12.42,6.44-18.77,2.02-7.65,3.7-15.43,5.33-23.18.39-2.05,2.38-3.37,4.37-3.22,1.57.11,2.9,1.06,3.86,2.24,2.42,3.27,3.52,7.23,4.75,10.95,3.48,11.67,5.74,23.51,8.01,35.42.02.02-7.91.28-7.91.29,3.37-22.81,14.95-66.06,45.45-59.66,3.26.79,2.43,5.62-.95,5.21-13.03-2.37-21.69,7.85-26.78,18.77-5.29,11.35-8.21,24.16-9.77,36.58-.56,4.53-7.01,4.75-7.9.32-.76-3.9-1.46-7.83-2.28-11.71-2.28-10.2-4.07-20.94-8.41-30.42-.09-.21-.32-.53-.43-.7,0,.02.01.02.03.02.44.42,1.16.65,1.79.68.82.07,1.67-.19,2.34-.66,0,0,1.67-2.5,1.67-2.5-3.05,13.93-5.74,28.07-11.17,41.34-.83,1.8-1.83,3.87-3.21,5.34-.96,1.01-2.35,1.84-3.83,1.81-1.96.01-3.71-1.52-3.94-3.4,0,0-1.26-7.27-1.26-7.27-2.98-14.65-7.18-29.67-15.85-42.03-6.48-8.81-16.81-14.08-27.74-14.25-8.4-.3-16.74,3.4-22.81,9.16-.43.45-.89.85-1.19,1.22-3.62,3.77-9.34-1.34-5.92-5.37h0Z"/>
  </g>
</svg>