<?xml version="1.0" encoding="UTF-8"?>
<svg id="Layer_1" data-name="Layer 1" xmlns="http://www.w3.org/2000/svg" xmlns:xlink="http://www.w3.org/1999/xlink" viewBox="0 0 340.56 294.93">
  <defs>
    <style>
      .cls-1 {
        stroke-width: 7px;
      }

      .cls-1, .cls-2, .cls-3 {
        stroke: #02454e;
        stroke-miterlimit: 10;
      }

      .cls-1, .cls-3 {
        fill: none;
      }

      .cls-4 {
        font-family: ProximaNova-Regular, 'Proxima Nova';
      }

      .cls-5 {
        font-size: 21.86px;
      }

      .cls-5, .cls-2, .cls-6 {
        fill: #02454e;
      }

      .cls-7 {
        fill: #feed70;
      }

      .cls-8 {
        font-family: ProximaNova-Bold, 'Proxima Nova';
        font-weight: 700;
      }

      .cls-9 {
        letter-spacing: -.03em;
      }
    </style>
  </defs>
  <polygon class="cls-7" points="255.42 0 85.14 0 0 147.47 85.14 294.93 255.42 294.93 340.56 147.47 255.42 0"/>
  <image width="825" height="246" transform="translate(104.78 238.27) scale(.15)" xlink:href="Untitled-11.png"/>
  <text class="cls-5" transform="translate(70.82 158.21)"><tspan class="cls-8"><tspan x="0" y="0">FEEDB</tspan><tspan class="cls-9" x="68.16" y="0">A</tspan><tspan x="82.37" y="0">CK FRIEND</tspan></tspan><tspan class="cls-4"><tspan x="33.82" y="26.23">APPRENTICE</tspan></tspan></text>
  <polygon class="cls-6" points="152.98 195.07 156.8 202.79 165.32 204.03 159.15 210.04 160.61 218.53 152.98 214.52 145.36 218.53 146.82 210.04 140.65 204.03 149.17 202.79 152.98 195.07"/>
  <polygon class="cls-3" points="185.57 195.07 189.38 202.79 197.9 204.03 191.73 210.04 193.19 218.53 185.57 214.52 177.94 218.53 179.4 210.04 173.23 204.03 181.75 202.79 185.57 195.07"/>
  <path class="cls-1" d="m121.03,65.36h18.68c4.04,0,7.33,3.28,7.33,7.33v47.35c0,4.09-3.32,7.4-7.4,7.4h-18.41c-.84,0-1.52-.68-1.52-1.52v-59.24c0-.73.6-1.33,1.33-1.33Z"/>
  <path class="cls-2" d="m150.11,124.53c9.56,5.33,19.89,6.04,19.89,6.04h34.22c11.22-4.51,7.33-14.15,7.33-14.15,12.56-4.22,5-16.56,5-16.56,6.11-6.11-.11-13.78-.11-13.78,8.11-13.11-5.89-17.22-5.89-17.22h-21.67c3-12,6.11-27.22-3.56-32-9.67-4.78-14-.56-14-.56-3.89,27.31-21.22,32.56-21.22,32.56v6.56s18.78-.78,27.11-34c0,0,14.22-3,4.22,27.44h-6.35c-1.22,0-2.39.56-3.09,1.56-.59.84-.94,1.96-.19,3.2.7,1.17,2.04,1.8,3.4,1.8h32.24c1.73,0,3.42.86,4.24,2.39.56,1.05.7,2.32-.54,3.56-.81.81-1.96,1.21-3.1,1.21h-5.36c-1.4,0-2.77.58-3.61,1.69-.69.92-1.05,2.15.06,3.54.91,1.13,2.34,1.72,3.79,1.72h5.19c1.49,0,2.93.74,3.63,2.05.43.8.59,1.78-.02,2.84-.69,1.18-2.03,1.83-3.39,1.84h-5.32c-1.45.02-2.87.62-3.75,1.76-.72.93-1.1,2.15,0,3.47.89,1.06,2.26,1.6,3.64,1.6h5.63c1.35,0,2.67.66,3.28,1.86.35.68.51,1.54.14,2.54-.56,1.54-2.12,2.49-3.75,2.49h-5.04c-1.72,0-3.41.84-4.25,2.35-.62,1.11-.69,2.45,1.1,3.67.66.45,1.43.71,2.22.85,1.06.19,2.85.83,3.13,2.94.25,1.95-1.21,3.78-3.16,4.02-.61.08-1.34.08-2.2-.04-.45-.06-.9-.11-1.36-.11h-29.37s-11.72-2.44-19.17-6.11v7Z"/>
</svg>